<svg xmlns="http://www.w3.org/2000/svg" baseProfile="full" version="1.1" style="fill: none;" width="540px" height="585px">
    <!--    Author:     Kris K 
            Tooling:    Dotgrid by 100r -->
    <path style="stroke-width: 7px; stroke-linecap: round; stroke-linejoin: round; stroke: rgb(89, 60, 31); fill: none;" 
        d="M240,255 A15,30 0 0,1 225,225 A30,15 0 0,1 255,240 A15,15 0 0,1 240,255 M270,255 L270,240 A15,15 0 0,1 285,225 A15,15 0 0,1 300,240 A30,15 0 0,1 270,255 M315,240 A15,15 0 0,1 300,225 L300,210 A30,15 0 0,1 330,225 A15,15 0 0,1 315,240 M255,225 A15,15 0 0,1 240,210 L240,195 A30,15 0 0,1 270,210 M255,225 A15,15 0 0,0 270,210 M345,210 A15,15 0 0,1 330,195 A30,15 0 0,1 360,180 L360,195 A15,15 0 0,1 345,210 M330,210 L315,210 A15,15 0 0,1 300,195 A15,15 0 0,1 315,180 A15,30 0 0,1 330,210 M285,210 A15,15 0 0,1 270,195 L270,180 A30,15 0 0,1 300,195 A15,15 0 0,1 285,210 M225,195 L225,210 A15,15 0 0,1 210,225 A15,15 0 0,1 195,210 A30,15 0 0,1 225,195 M195,195 L180,195 A15,30 0 0,1 195,165 A15,15 0 0,1 210,180 A15,15 0 0,1 195,195 M225,180 L225,165 A30,15 0 0,1 255,180 A15,15 0 0,1 240,195 A15,15 0 0,1 225,180 M300,165 A15,15 0 0,1 285,180 A15,15 0 0,1 270,165 L270,150 A30,15 0 0,1 300,165 M315,165 A15,15 0 0,0 330,180 A15,15 0 0,0 345,165 L345,150 A30,15 0 0,0 315,165 M255,165 L240,165 A15,15 0 0,1 225,150 A15,15 0 0,1 240,135 A15,30 0 0,1 255,165 M315,150 L300,150 A15,15 0 0,1 285,135 A15,15 0 0,1 300,120 A15,30 0 0,1 315,150 M255,150 L255,135 A15,15 0 0,1 270,120 A15,15 0 0,1 285,135 A30,15 0 0,1 255,150 M165,480 L165,480 L180,495 M180,465 L180,465 L210,495 M195,450 L195,450 L240,495 M210,450 L210,450 L255,495 M225,435 L225,435 L285,495 M255,420 L255,420 L330,495 M285,420 L285,420 L360,495 M315,435 L315,435 L375,495 M345,450 L345,450 L390,495 M195,465 L195,465 L165,495 M270,420 L270,420 L195,495 M300,420 L300,420 L225,495 M330,435 L330,435 L270,495 M330,480 L330,480 L315,495 M240,435 L240,435 L255,450 "/>
    <path style="stroke-width: 15px; stroke-linecap: round; stroke-linejoin: bevel; stroke: rgb(47, 47, 47); fill: none;" 
        d="M255,285 L255,285 L270,300 L285,285 "/>
    <path style="stroke-width: 11px; stroke-linecap: round; stroke-linejoin: bevel; stroke: rgb(149, 205, 220); fill: none;" 
        d="M135,60 A135,210 0 0,0 270,270 A135,210 0 0,0 405,60 M405,495 A135,210 0 0,0 270,285 A135,210 0 0,0 135,495 M345,60 Q285,195 210,255 M390,60 Q360,165 225,255 M150,495 Q180,390 300,285 M195,495 Q240,360 315,285 "/>
    <path style="stroke-width: 15px; stroke-linecap: round; stroke-linejoin: bevel; stroke: rgb(47, 47, 47); fill: none;" 
        d="M360,270 L360,270 L375,255 L390,285 L375,285 L360,270 M390,270 L405,270 A45,120 0 0,0 450,150 A60,120 0 0,0 390,270 M465,165 Q465,135 480,135 Q480,165 465,165 M195,255 A45,15 0 0,1 240,270 L300,270 A45,15 0 0,1 345,255 A15,15 0 0,1 360,270 A15,15 0 0,1 345,285 L195,285 A15,15 0 0,1 180,270 A15,15 0 0,1 195,255 M105,45 A30,15 0 0,1 135,30 L405,30 A30,15 0 0,1 435,45 A15,15 0 0,1 420,60 L120,60 A15,15 0 0,1 105,45 M120,495 L420,495 A15,15 0 0,1 435,510 A30,15 0 0,1 405,525 L135,525 A30,15 0 0,1 105,510 A15,15 0 0,1 120,495 "/>

</svg>